<mxfile host="app.diagrams.net" modified="2022-09-12T06:11:40.044Z" agent="5.0 (Windows NT 10.0; Win64; x64) AppleWebKit/537.36 (KHTML, like Gecko) Chrome/104.0.5112.102 Safari/537.36 OPR/90.0.4480.78" etag="GbgNEZrBGeEAAbgUdhmW" version="20.3.0" type="github">
  <diagram id="lgBU8QAUktvvbeDi8el8" name="Страница 1">
    <mxGraphModel dx="1381" dy="764" grid="1" gridSize="10" guides="1" tooltips="1" connect="1" arrows="1" fold="1" page="1" pageScale="1" pageWidth="827" pageHeight="1169" math="0" shadow="0">
      <root>
        <mxCell id="0" />
        <mxCell id="1" parent="0" />
        <mxCell id="Ek-aGh3pe6eO3Bai1jZO-234" value="" style="edgeStyle=none;rounded=0;jumpStyle=none;html=1;shadow=0;labelBackgroundColor=none;startArrow=none;startFill=0;endArrow=classic;endFill=1;jettySize=auto;orthogonalLoop=1;strokeColor=#2F5B7C;strokeWidth=3;fontFamily=Helvetica;fontSize=16;fontColor=#23445D;spacing=5;fontStyle=1" parent="1" source="Ek-aGh3pe6eO3Bai1jZO-238" target="Ek-aGh3pe6eO3Bai1jZO-241" edge="1">
          <mxGeometry relative="1" as="geometry" />
        </mxCell>
        <mxCell id="Ek-aGh3pe6eO3Bai1jZO-237" value="" style="edgeStyle=none;rounded=0;jumpStyle=none;html=1;shadow=0;labelBackgroundColor=none;startArrow=none;startFill=0;endArrow=classic;endFill=1;jettySize=auto;orthogonalLoop=1;strokeColor=#2F5B7C;strokeWidth=3;fontFamily=Helvetica;fontSize=16;fontColor=#23445D;spacing=5;fontStyle=1" parent="1" source="Ek-aGh3pe6eO3Bai1jZO-238" target="Ek-aGh3pe6eO3Bai1jZO-239" edge="1">
          <mxGeometry relative="1" as="geometry" />
        </mxCell>
        <mxCell id="Ek-aGh3pe6eO3Bai1jZO-238" value="&lt;div&gt;&lt;br&gt;&lt;/div&gt;&lt;div&gt;&lt;/div&gt;&lt;span style=&quot;font-size: 12pt;&quot; data-sheets-userformat=&quot;{&amp;quot;2&amp;quot;:13289,&amp;quot;3&amp;quot;:{&amp;quot;1&amp;quot;:0},&amp;quot;6&amp;quot;:{&amp;quot;1&amp;quot;:[{&amp;quot;1&amp;quot;:2,&amp;quot;2&amp;quot;:0,&amp;quot;5&amp;quot;:{&amp;quot;1&amp;quot;:2,&amp;quot;2&amp;quot;:0}},{&amp;quot;1&amp;quot;:0,&amp;quot;2&amp;quot;:0,&amp;quot;3&amp;quot;:3},{&amp;quot;1&amp;quot;:1,&amp;quot;2&amp;quot;:0,&amp;quot;4&amp;quot;:1}]},&amp;quot;8&amp;quot;:{&amp;quot;1&amp;quot;:[{&amp;quot;1&amp;quot;:2,&amp;quot;2&amp;quot;:0,&amp;quot;5&amp;quot;:{&amp;quot;1&amp;quot;:2,&amp;quot;2&amp;quot;:0}},{&amp;quot;1&amp;quot;:0,&amp;quot;2&amp;quot;:0,&amp;quot;3&amp;quot;:3},{&amp;quot;1&amp;quot;:1,&amp;quot;2&amp;quot;:0,&amp;quot;4&amp;quot;:1}]},&amp;quot;9&amp;quot;:1,&amp;quot;10&amp;quot;:0,&amp;quot;11&amp;quot;:4,&amp;quot;12&amp;quot;:0,&amp;quot;15&amp;quot;:&amp;quot;\&amp;quot;Times New Roman\&amp;quot;, serif&amp;quot;,&amp;quot;16&amp;quot;:12}&quot; data-sheets-value=&quot;{&amp;quot;1&amp;quot;:2,&amp;quot;2&amp;quot;:&amp;quot;стан фізичного здоров&#39;я&amp;quot;}&quot;&gt;&lt;span style=&quot;font-size: 12pt;&quot; data-sheets-userformat=&quot;{&amp;quot;2&amp;quot;:13289,&amp;quot;3&amp;quot;:{&amp;quot;1&amp;quot;:0},&amp;quot;6&amp;quot;:{&amp;quot;1&amp;quot;:[{&amp;quot;1&amp;quot;:2,&amp;quot;2&amp;quot;:0,&amp;quot;5&amp;quot;:{&amp;quot;1&amp;quot;:2,&amp;quot;2&amp;quot;:0}},{&amp;quot;1&amp;quot;:0,&amp;quot;2&amp;quot;:0,&amp;quot;3&amp;quot;:3},{&amp;quot;1&amp;quot;:1,&amp;quot;2&amp;quot;:0,&amp;quot;4&amp;quot;:1}]},&amp;quot;8&amp;quot;:{&amp;quot;1&amp;quot;:[{&amp;quot;1&amp;quot;:2,&amp;quot;2&amp;quot;:0,&amp;quot;5&amp;quot;:{&amp;quot;1&amp;quot;:2,&amp;quot;2&amp;quot;:0}},{&amp;quot;1&amp;quot;:0,&amp;quot;2&amp;quot;:0,&amp;quot;3&amp;quot;:3},{&amp;quot;1&amp;quot;:1,&amp;quot;2&amp;quot;:0,&amp;quot;4&amp;quot;:1}]},&amp;quot;9&amp;quot;:1,&amp;quot;10&amp;quot;:0,&amp;quot;11&amp;quot;:4,&amp;quot;12&amp;quot;:0,&amp;quot;15&amp;quot;:&amp;quot;\&amp;quot;Times New Roman\&amp;quot;, serif&amp;quot;,&amp;quot;16&amp;quot;:12}&quot; data-sheets-value=&quot;{&amp;quot;1&amp;quot;:2,&amp;quot;2&amp;quot;:&amp;quot;професійне спілкування&amp;quot;}&quot;&gt;&lt;span style=&quot;font-size: 12pt;&quot; data-sheets-userformat=&quot;{&amp;quot;2&amp;quot;:13033,&amp;quot;3&amp;quot;:{&amp;quot;1&amp;quot;:0},&amp;quot;6&amp;quot;:{&amp;quot;1&amp;quot;:[{&amp;quot;1&amp;quot;:2,&amp;quot;2&amp;quot;:0,&amp;quot;5&amp;quot;:{&amp;quot;1&amp;quot;:2,&amp;quot;2&amp;quot;:0}},{&amp;quot;1&amp;quot;:0,&amp;quot;2&amp;quot;:0,&amp;quot;3&amp;quot;:3},{&amp;quot;1&amp;quot;:1,&amp;quot;2&amp;quot;:0,&amp;quot;4&amp;quot;:1}]},&amp;quot;8&amp;quot;:{&amp;quot;1&amp;quot;:[{&amp;quot;1&amp;quot;:2,&amp;quot;2&amp;quot;:0,&amp;quot;5&amp;quot;:{&amp;quot;1&amp;quot;:2,&amp;quot;2&amp;quot;:0}},{&amp;quot;1&amp;quot;:0,&amp;quot;2&amp;quot;:0,&amp;quot;3&amp;quot;:3},{&amp;quot;1&amp;quot;:1,&amp;quot;2&amp;quot;:0,&amp;quot;4&amp;quot;:1}]},&amp;quot;9&amp;quot;:1,&amp;quot;10&amp;quot;:0,&amp;quot;12&amp;quot;:0,&amp;quot;15&amp;quot;:&amp;quot;\&amp;quot;Times New Roman\&amp;quot;, serif&amp;quot;,&amp;quot;16&amp;quot;:12}&quot; data-sheets-value=&quot;{&amp;quot;1&amp;quot;:2,&amp;quot;2&amp;quot;:&amp;quot;зацікавленість архітектурою&amp;quot;}&quot;&gt;&lt;span style=&quot;font-size: 12pt; background-color: initial;&quot;&gt;&lt;span style=&quot;font-size: 14pt; line-height: 107%;&quot; lang=&quot;UK&quot;&gt;Потреба у підвищені&lt;br/&gt;кваліфікації у архітектурі&lt;/span&gt;&lt;/span&gt;&amp;nbsp;&lt;/span&gt;&lt;br&gt;&lt;/span&gt;&lt;br&gt;&lt;br&gt;&lt;/span&gt;" style="rounded=1;whiteSpace=wrap;html=1;shadow=0;labelBackgroundColor=none;strokeColor=none;strokeWidth=3;fillColor=#2F5B7C;fontFamily=Helvetica;fontSize=16;fontColor=#FFFFFF;align=center;fontStyle=1;spacing=5;arcSize=3;perimeterSpacing=2;" parent="1" vertex="1">
          <mxGeometry x="861.5" y="428.5" width="380" height="145" as="geometry" />
        </mxCell>
        <mxCell id="Ek-aGh3pe6eO3Bai1jZO-239" value="&lt;span style=&quot;font-size: 12pt;&quot; data-sheets-userformat=&quot;{&amp;quot;2&amp;quot;:13289,&amp;quot;3&amp;quot;:{&amp;quot;1&amp;quot;:0},&amp;quot;6&amp;quot;:{&amp;quot;1&amp;quot;:[{&amp;quot;1&amp;quot;:2,&amp;quot;2&amp;quot;:0,&amp;quot;5&amp;quot;:{&amp;quot;1&amp;quot;:2,&amp;quot;2&amp;quot;:0}},{&amp;quot;1&amp;quot;:0,&amp;quot;2&amp;quot;:0,&amp;quot;3&amp;quot;:3},{&amp;quot;1&amp;quot;:1,&amp;quot;2&amp;quot;:0,&amp;quot;4&amp;quot;:1}]},&amp;quot;8&amp;quot;:{&amp;quot;1&amp;quot;:[{&amp;quot;1&amp;quot;:2,&amp;quot;2&amp;quot;:0,&amp;quot;5&amp;quot;:{&amp;quot;1&amp;quot;:2,&amp;quot;2&amp;quot;:0}},{&amp;quot;1&amp;quot;:0,&amp;quot;2&amp;quot;:0,&amp;quot;3&amp;quot;:3},{&amp;quot;1&amp;quot;:1,&amp;quot;2&amp;quot;:0,&amp;quot;4&amp;quot;:1}]},&amp;quot;9&amp;quot;:1,&amp;quot;10&amp;quot;:0,&amp;quot;11&amp;quot;:4,&amp;quot;12&amp;quot;:0,&amp;quot;15&amp;quot;:&amp;quot;\&amp;quot;Times New Roman\&amp;quot;, serif&amp;quot;,&amp;quot;16&amp;quot;:12}&quot; data-sheets-value=&quot;{&amp;quot;1&amp;quot;:2,&amp;quot;2&amp;quot;:&amp;quot;професійне спілкування&amp;quot;}&quot;&gt;Професійне спілкування&lt;/span&gt;" style="rounded=1;whiteSpace=wrap;html=1;shadow=0;labelBackgroundColor=none;strokeColor=none;strokeWidth=3;fillColor=#e85642;fontFamily=Helvetica;fontSize=14;fontColor=#FFFFFF;align=center;spacing=5;fontStyle=1;arcSize=7;perimeterSpacing=2;" parent="1" vertex="1">
          <mxGeometry x="637.5" y="462.5" width="148" height="79" as="geometry" />
        </mxCell>
        <mxCell id="Ek-aGh3pe6eO3Bai1jZO-241" value="&lt;span style=&quot;font-size: 12pt;&quot; data-sheets-userformat=&quot;{&amp;quot;2&amp;quot;:13033,&amp;quot;3&amp;quot;:{&amp;quot;1&amp;quot;:0},&amp;quot;6&amp;quot;:{&amp;quot;1&amp;quot;:[{&amp;quot;1&amp;quot;:2,&amp;quot;2&amp;quot;:0,&amp;quot;5&amp;quot;:{&amp;quot;1&amp;quot;:2,&amp;quot;2&amp;quot;:0}},{&amp;quot;1&amp;quot;:0,&amp;quot;2&amp;quot;:0,&amp;quot;3&amp;quot;:3},{&amp;quot;1&amp;quot;:1,&amp;quot;2&amp;quot;:0,&amp;quot;4&amp;quot;:1}]},&amp;quot;8&amp;quot;:{&amp;quot;1&amp;quot;:[{&amp;quot;1&amp;quot;:2,&amp;quot;2&amp;quot;:0,&amp;quot;5&amp;quot;:{&amp;quot;1&amp;quot;:2,&amp;quot;2&amp;quot;:0}},{&amp;quot;1&amp;quot;:0,&amp;quot;2&amp;quot;:0,&amp;quot;3&amp;quot;:3},{&amp;quot;1&amp;quot;:1,&amp;quot;2&amp;quot;:0,&amp;quot;4&amp;quot;:1}]},&amp;quot;9&amp;quot;:1,&amp;quot;10&amp;quot;:0,&amp;quot;12&amp;quot;:0,&amp;quot;15&amp;quot;:&amp;quot;\&amp;quot;Times New Roman\&amp;quot;, serif&amp;quot;,&amp;quot;16&amp;quot;:12}&quot; data-sheets-value=&quot;{&amp;quot;1&amp;quot;:2,&amp;quot;2&amp;quot;:&amp;quot;зацікавленість архітектурою&amp;quot;}&quot;&gt;Зацікавленість архітектурою&lt;/span&gt;" style="rounded=1;whiteSpace=wrap;html=1;shadow=0;labelBackgroundColor=none;strokeColor=none;strokeWidth=3;fillColor=#F08705;fontFamily=Helvetica;fontSize=14;fontColor=#FFFFFF;align=center;spacing=5;fontStyle=1;arcSize=7;perimeterSpacing=2;" parent="1" vertex="1">
          <mxGeometry x="974.5" y="303" width="160" height="73" as="geometry" />
        </mxCell>
        <mxCell id="Ek-aGh3pe6eO3Bai1jZO-261" value="Що?" style="rounded=1;whiteSpace=wrap;html=1;shadow=0;labelBackgroundColor=none;strokeColor=none;strokeWidth=3;fillColor=#f5af58;fontFamily=Helvetica;fontSize=14;fontColor=#FFFFFF;align=center;spacing=5;arcSize=7;perimeterSpacing=2;fontStyle=1" parent="1" vertex="1">
          <mxGeometry x="717.5" y="309.5" width="80" height="60" as="geometry" />
        </mxCell>
        <mxCell id="Ek-aGh3pe6eO3Bai1jZO-262" value="" style="edgeStyle=none;rounded=0;jumpStyle=none;html=1;shadow=0;labelBackgroundColor=none;startArrow=none;startFill=0;endArrow=classic;endFill=1;jettySize=auto;orthogonalLoop=1;strokeColor=#F08705;strokeWidth=3;fontFamily=Helvetica;fontSize=14;fontColor=#FFFFFF;spacing=5;exitX=0;exitY=0.5;exitDx=0;exitDy=0;fontStyle=1" parent="1" source="Ek-aGh3pe6eO3Bai1jZO-241" target="Ek-aGh3pe6eO3Bai1jZO-261" edge="1">
          <mxGeometry relative="1" as="geometry">
            <mxPoint x="984.5" y="355.5" as="sourcePoint" />
          </mxGeometry>
        </mxCell>
        <mxCell id="Ek-aGh3pe6eO3Bai1jZO-273" value="" style="edgeStyle=none;rounded=1;jumpStyle=none;html=1;shadow=0;labelBackgroundColor=none;startArrow=none;startFill=0;jettySize=auto;orthogonalLoop=1;strokeColor=#E85642;strokeWidth=3;fontFamily=Helvetica;fontSize=14;fontColor=#FFFFFF;spacing=5;fontStyle=1;fillColor=#b0e3e6;exitX=0.382;exitY=0.011;exitDx=0;exitDy=0;exitPerimeter=0;" parent="1" source="Ek-aGh3pe6eO3Bai1jZO-239" target="Ek-aGh3pe6eO3Bai1jZO-274" edge="1">
          <mxGeometry relative="1" as="geometry">
            <mxPoint x="524.8587786259541" y="466" as="sourcePoint" />
          </mxGeometry>
        </mxCell>
        <mxCell id="Ek-aGh3pe6eO3Bai1jZO-274" value="Що?" style="rounded=1;whiteSpace=wrap;html=1;shadow=0;labelBackgroundColor=none;strokeColor=none;strokeWidth=3;fillColor=#f08e81;fontFamily=Helvetica;fontSize=14;fontColor=#FFFFFF;align=center;spacing=5;fontStyle=1;arcSize=7;perimeterSpacing=2;" parent="1" vertex="1">
          <mxGeometry x="487.5" y="257.5" width="64" height="55" as="geometry" />
        </mxCell>
        <mxCell id="Ek-aGh3pe6eO3Bai1jZO-275" value="" style="edgeStyle=none;rounded=1;jumpStyle=none;html=1;shadow=0;labelBackgroundColor=none;startArrow=none;startFill=0;jettySize=auto;orthogonalLoop=1;strokeColor=#E85642;strokeWidth=3;fontFamily=Helvetica;fontSize=14;fontColor=#FFFFFF;spacing=5;fontStyle=1;fillColor=#b0e3e6;exitX=0.03;exitY=0.125;exitDx=0;exitDy=0;exitPerimeter=0;" parent="1" source="Ek-aGh3pe6eO3Bai1jZO-239" target="Ek-aGh3pe6eO3Bai1jZO-276" edge="1">
          <mxGeometry relative="1" as="geometry">
            <mxPoint x="602.4580000000001" y="565.508" as="sourcePoint" />
          </mxGeometry>
        </mxCell>
        <mxCell id="Ek-aGh3pe6eO3Bai1jZO-276" value="Де?" style="rounded=1;whiteSpace=wrap;html=1;shadow=0;labelBackgroundColor=none;strokeColor=none;strokeWidth=3;fillColor=#f08e81;fontFamily=Helvetica;fontSize=14;fontColor=#FFFFFF;align=center;spacing=5;fontStyle=1;arcSize=7;perimeterSpacing=2;" parent="1" vertex="1">
          <mxGeometry x="456.5" y="375.5" width="70" height="57" as="geometry" />
        </mxCell>
        <mxCell id="Ek-aGh3pe6eO3Bai1jZO-277" value="" style="edgeStyle=none;rounded=1;jumpStyle=none;html=1;shadow=0;labelBackgroundColor=none;startArrow=none;startFill=0;jettySize=auto;orthogonalLoop=1;strokeColor=#E85642;strokeWidth=3;fontFamily=Helvetica;fontSize=14;fontColor=#FFFFFF;spacing=5;fontStyle=1;fillColor=#b0e3e6;entryX=1;entryY=0.5;entryDx=0;entryDy=0;exitX=0.04;exitY=0.906;exitDx=0;exitDy=0;exitPerimeter=0;" parent="1" source="Ek-aGh3pe6eO3Bai1jZO-239" target="Ek-aGh3pe6eO3Bai1jZO-278" edge="1">
          <mxGeometry relative="1" as="geometry">
            <mxPoint x="636.4580000000001" y="683.508" as="sourcePoint" />
          </mxGeometry>
        </mxCell>
        <mxCell id="Ek-aGh3pe6eO3Bai1jZO-278" value="Коли?" style="rounded=1;whiteSpace=wrap;html=1;shadow=0;labelBackgroundColor=none;strokeColor=none;strokeWidth=3;fillColor=#f08e81;fontFamily=Helvetica;fontSize=14;fontColor=#FFFFFF;align=center;spacing=5;fontStyle=1;arcSize=7;perimeterSpacing=2;" parent="1" vertex="1">
          <mxGeometry x="505.5" y="527.5" width="63" height="57" as="geometry" />
        </mxCell>
        <mxCell id="Ek-aGh3pe6eO3Bai1jZO-279" value="" style="edgeStyle=none;rounded=1;jumpStyle=none;html=1;shadow=0;labelBackgroundColor=none;startArrow=none;startFill=0;jettySize=auto;orthogonalLoop=1;strokeColor=#E85642;strokeWidth=3;fontFamily=Helvetica;fontSize=14;fontColor=#FFFFFF;spacing=5;fontStyle=1;fillColor=#b0e3e6;entryX=1;entryY=0;entryDx=0;entryDy=0;" parent="1" source="Ek-aGh3pe6eO3Bai1jZO-239" target="Ek-aGh3pe6eO3Bai1jZO-280" edge="1">
          <mxGeometry relative="1" as="geometry">
            <mxPoint x="678.4580000000001" y="699.508" as="sourcePoint" />
          </mxGeometry>
        </mxCell>
        <mxCell id="Ek-aGh3pe6eO3Bai1jZO-280" value="Як?" style="rounded=1;whiteSpace=wrap;html=1;shadow=0;labelBackgroundColor=none;strokeColor=none;strokeWidth=3;fillColor=#f08e81;fontFamily=Helvetica;fontSize=14;fontColor=#FFFFFF;align=center;spacing=5;fontStyle=1;arcSize=7;perimeterSpacing=2;" parent="1" vertex="1">
          <mxGeometry x="478.5" y="704" width="69" height="57" as="geometry" />
        </mxCell>
        <mxCell id="Ek-aGh3pe6eO3Bai1jZO-324" value="Приходить" style="rounded=1;whiteSpace=wrap;html=1;shadow=0;fillColor=#fae8e6;fontFamily=Helvetica;fontSize=14;fontColor=#000000;align=center;spacing=5;fontStyle=1;arcSize=7;perimeterSpacing=2;direction=south;" parent="1" vertex="1">
          <mxGeometry x="342.5" y="482" width="84" height="60" as="geometry" />
        </mxCell>
        <mxCell id="Ek-aGh3pe6eO3Bai1jZO-327" value="У мозку" style="fontFamily=Helvetica;fontSize=14;fontStyle=1" parent="1" vertex="1">
          <mxGeometry x="154" y="376" width="82" height="60" as="geometry" />
        </mxCell>
        <mxCell id="Ek-aGh3pe6eO3Bai1jZO-328" value="На курсах &#xa;підвищення &#xa;кваліфікації" style="fontFamily=Helvetica;fontSize=14;fontStyle=1" parent="1" vertex="1">
          <mxGeometry x="136.5" y="481" width="116" height="60" as="geometry" />
        </mxCell>
        <mxCell id="Ek-aGh3pe6eO3Bai1jZO-329" value="" style="edgeStyle=none;rounded=1;jumpStyle=none;html=1;shadow=0;labelBackgroundColor=none;startArrow=none;startFill=0;jettySize=auto;orthogonalLoop=1;strokeColor=#12AAB5;strokeWidth=3;fontFamily=Helvetica;fontSize=14;fontColor=#FFFFFF;spacing=5;fontStyle=1;fillColor=#b0e3e6;entryX=1;entryY=0.5;entryDx=0;entryDy=0;" parent="1" source="Ek-aGh3pe6eO3Bai1jZO-324" target="Ek-aGh3pe6eO3Bai1jZO-328" edge="1">
          <mxGeometry relative="1" as="geometry">
            <mxPoint x="235.5" y="589" as="sourcePoint" />
            <mxPoint x="282.5" y="511.5000000000002" as="targetPoint" />
          </mxGeometry>
        </mxCell>
        <mxCell id="Ek-aGh3pe6eO3Bai1jZO-330" value="" style="edgeStyle=none;rounded=1;jumpStyle=none;html=1;shadow=0;labelBackgroundColor=none;startArrow=none;startFill=0;jettySize=auto;orthogonalLoop=1;strokeColor=#12AAB5;strokeWidth=3;fontFamily=Helvetica;fontSize=14;fontColor=#FFFFFF;spacing=5;fontStyle=1;fillColor=#b0e3e6;entryX=1;entryY=0.5;entryDx=0;entryDy=0;exitX=0.5;exitY=1;exitDx=0;exitDy=0;" parent="1" source="Ek-aGh3pe6eO3Bai1jZO-339" target="Ek-aGh3pe6eO3Bai1jZO-327" edge="1">
          <mxGeometry relative="1" as="geometry">
            <mxPoint x="143.5" y="401.57563025210106" as="sourcePoint" />
            <mxPoint x="242.5" y="404.5" as="targetPoint" />
          </mxGeometry>
        </mxCell>
        <mxCell id="Ek-aGh3pe6eO3Bai1jZO-332" value="Обробляється" style="rounded=1;whiteSpace=wrap;html=1;shadow=0;fillColor=#fae8e6;fontFamily=Helvetica;fontSize=14;fontColor=#000000;align=center;spacing=5;fontStyle=1;arcSize=7;perimeterSpacing=2;direction=south;" parent="1" vertex="1">
          <mxGeometry x="347" y="591.5" width="114" height="60" as="geometry" />
        </mxCell>
        <mxCell id="Ek-aGh3pe6eO3Bai1jZO-336" value="У &#xa;вільний час &#xa;від праці" style="fontFamily=Helvetica;fontSize=14;fontStyle=1" parent="1" vertex="1">
          <mxGeometry x="184" y="596.5" width="93" height="60" as="geometry" />
        </mxCell>
        <mxCell id="Ek-aGh3pe6eO3Bai1jZO-337" value="" style="edgeStyle=none;rounded=1;jumpStyle=none;html=1;shadow=0;labelBackgroundColor=none;startArrow=none;startFill=0;jettySize=auto;orthogonalLoop=1;strokeColor=#12AAB5;strokeWidth=3;fontFamily=Helvetica;fontSize=14;fontColor=#FFFFFF;spacing=5;fontStyle=1;fillColor=#b0e3e6;entryX=1.008;entryY=0.406;entryDx=0;entryDy=0;entryPerimeter=0;exitX=0.5;exitY=1;exitDx=0;exitDy=0;" parent="1" source="Ek-aGh3pe6eO3Bai1jZO-332" target="Ek-aGh3pe6eO3Bai1jZO-336" edge="1">
          <mxGeometry relative="1" as="geometry">
            <mxPoint x="294" y="822" as="sourcePoint" />
            <mxPoint x="217" y="846.1234567901233" as="targetPoint" />
          </mxGeometry>
        </mxCell>
        <mxCell id="Ek-aGh3pe6eO3Bai1jZO-339" value="Обробляється" style="rounded=1;whiteSpace=wrap;html=1;shadow=0;fillColor=#fae8e6;fontFamily=Helvetica;fontSize=14;fontColor=#000000;align=center;spacing=5;fontStyle=1;arcSize=7;perimeterSpacing=2;direction=south;" parent="1" vertex="1">
          <mxGeometry x="302.5" y="374.5" width="106" height="60" as="geometry" />
        </mxCell>
        <mxCell id="Ek-aGh3pe6eO3Bai1jZO-343" value="Виходить" style="rounded=1;whiteSpace=wrap;html=1;shadow=0;fillColor=#fae8e6;fontFamily=Helvetica;fontSize=14;fontColor=#000000;align=center;spacing=5;fontStyle=1;arcSize=7;perimeterSpacing=2;direction=south;" parent="1" vertex="1">
          <mxGeometry x="280.5" y="253" width="84" height="60" as="geometry" />
        </mxCell>
        <mxCell id="Ek-aGh3pe6eO3Bai1jZO-349" value="Підвищення &#xa;навичок &#xa;проф&#xa;спілкування" style="fontFamily=Helvetica;fontSize=14;fontStyle=1" parent="1" vertex="1">
          <mxGeometry x="261.5" y="85.5" width="120" height="73" as="geometry" />
        </mxCell>
        <mxCell id="Ek-aGh3pe6eO3Bai1jZO-350" value="" style="edgeStyle=none;rounded=1;jumpStyle=none;html=1;shadow=0;labelBackgroundColor=none;startArrow=none;startFill=0;jettySize=auto;orthogonalLoop=1;strokeColor=#12AAB5;strokeWidth=3;fontFamily=Helvetica;fontSize=14;fontColor=#FFFFFF;spacing=5;fontStyle=1;fillColor=#b0e3e6;" parent="1" source="Ek-aGh3pe6eO3Bai1jZO-343" target="Ek-aGh3pe6eO3Bai1jZO-349" edge="1">
          <mxGeometry relative="1" as="geometry">
            <mxPoint x="535.5" y="212.5" as="sourcePoint" />
            <mxPoint x="138.5" y="65.5" as="targetPoint" />
          </mxGeometry>
        </mxCell>
        <mxCell id="Ek-aGh3pe6eO3Bai1jZO-365" value="" style="edgeStyle=none;rounded=1;jumpStyle=none;html=1;shadow=0;labelBackgroundColor=none;startArrow=none;startFill=0;jettySize=auto;orthogonalLoop=1;strokeColor=#12AAB5;strokeWidth=3;fontFamily=Helvetica;fontSize=14;fontColor=#FFFFFF;spacing=5;fontStyle=1;fillColor=#b0e3e6;entryX=0.5;entryY=0;entryDx=0;entryDy=0;exitX=0;exitY=0.5;exitDx=0;exitDy=0;" parent="1" source="Ek-aGh3pe6eO3Bai1jZO-276" target="Ek-aGh3pe6eO3Bai1jZO-339" edge="1">
          <mxGeometry relative="1" as="geometry">
            <mxPoint x="479.87142857142817" y="385.4999999999998" as="sourcePoint" />
            <mxPoint x="460.5" y="404.5" as="targetPoint" />
          </mxGeometry>
        </mxCell>
        <mxCell id="Ek-aGh3pe6eO3Bai1jZO-366" value="" style="edgeStyle=none;rounded=1;jumpStyle=none;html=1;shadow=0;labelBackgroundColor=none;startArrow=none;startFill=0;jettySize=auto;orthogonalLoop=1;strokeColor=#12AAB5;strokeWidth=3;fontFamily=Helvetica;fontSize=14;fontColor=#FFFFFF;spacing=5;fontStyle=1;fillColor=#b0e3e6;exitX=0.5;exitY=1;exitDx=0;exitDy=0;entryX=0.5;entryY=0;entryDx=0;entryDy=0;" parent="1" source="Ek-aGh3pe6eO3Bai1jZO-276" target="Ek-aGh3pe6eO3Bai1jZO-324" edge="1">
          <mxGeometry relative="1" as="geometry">
            <mxPoint x="454.5" y="427.5" as="sourcePoint" />
            <mxPoint x="392.5" y="512.5" as="targetPoint" />
          </mxGeometry>
        </mxCell>
        <mxCell id="Ek-aGh3pe6eO3Bai1jZO-369" value="" style="edgeStyle=none;rounded=1;jumpStyle=none;html=1;shadow=0;labelBackgroundColor=none;startArrow=none;startFill=0;jettySize=auto;orthogonalLoop=1;strokeColor=#12AAB5;strokeWidth=3;fontFamily=Helvetica;fontSize=14;fontColor=#FFFFFF;spacing=5;fontStyle=1;fillColor=#b0e3e6;entryX=0.5;entryY=0;entryDx=0;entryDy=0;exitX=0.5;exitY=1;exitDx=0;exitDy=0;" parent="1" source="Ek-aGh3pe6eO3Bai1jZO-278" target="Ek-aGh3pe6eO3Bai1jZO-332" edge="1">
          <mxGeometry relative="1" as="geometry">
            <mxPoint x="462.5" y="618.5" as="sourcePoint" />
            <mxPoint x="491.5" y="621.5000000000002" as="targetPoint" />
          </mxGeometry>
        </mxCell>
        <mxCell id="Ek-aGh3pe6eO3Bai1jZO-406" value="Приходить" style="rounded=1;whiteSpace=wrap;html=1;shadow=0;fillColor=#fae8e6;fontFamily=Helvetica;fontSize=14;fontColor=#000000;align=center;spacing=5;fontStyle=1;arcSize=7;perimeterSpacing=2;direction=south;" parent="1" vertex="1">
          <mxGeometry x="472" y="828.5" width="82" height="60" as="geometry" />
        </mxCell>
        <mxCell id="Ek-aGh3pe6eO3Bai1jZO-410" value="За допомогою &#xa;мислених &#xa;процесів" style="fontFamily=Helvetica;fontSize=14;fontStyle=1" parent="1" vertex="1">
          <mxGeometry x="248.5" y="912.5" width="114" height="60" as="geometry" />
        </mxCell>
        <mxCell id="Ek-aGh3pe6eO3Bai1jZO-413" value="" style="edgeStyle=none;rounded=1;jumpStyle=none;html=1;shadow=0;labelBackgroundColor=none;startArrow=none;startFill=0;jettySize=auto;orthogonalLoop=1;strokeColor=#12AAB5;strokeWidth=3;fontFamily=Helvetica;fontSize=14;fontColor=#FFFFFF;spacing=5;fontStyle=1;fillColor=#b0e3e6;entryX=0.5;entryY=0;entryDx=0;entryDy=0;exitX=1;exitY=0.5;exitDx=0;exitDy=0;" parent="1" source="Ek-aGh3pe6eO3Bai1jZO-414" target="Ek-aGh3pe6eO3Bai1jZO-410" edge="1">
          <mxGeometry relative="1" as="geometry">
            <mxPoint x="45.500000000000455" y="852.5178571428571" as="sourcePoint" />
            <mxPoint x="198.5" y="1050" as="targetPoint" />
          </mxGeometry>
        </mxCell>
        <mxCell id="Ek-aGh3pe6eO3Bai1jZO-414" value="Обробляється" style="rounded=1;whiteSpace=wrap;html=1;shadow=0;fillColor=#fae8e6;fontFamily=Helvetica;fontSize=14;fontColor=#000000;align=center;spacing=5;fontStyle=1;arcSize=7;perimeterSpacing=2;direction=south;" parent="1" vertex="1">
          <mxGeometry x="252.5" y="702.5" width="106" height="60" as="geometry" />
        </mxCell>
        <mxCell id="Ek-aGh3pe6eO3Bai1jZO-415" value="" style="edgeStyle=none;rounded=1;jumpStyle=none;html=1;shadow=0;labelBackgroundColor=none;startArrow=none;startFill=0;jettySize=auto;orthogonalLoop=1;strokeColor=#12AAB5;strokeWidth=3;fontFamily=Helvetica;fontSize=14;fontColor=#FFFFFF;spacing=5;fontStyle=1;fillColor=#b0e3e6;exitX=0.5;exitY=1;exitDx=0;exitDy=0;" parent="1" source="Ek-aGh3pe6eO3Bai1jZO-280" target="Ek-aGh3pe6eO3Bai1jZO-406" edge="1">
          <mxGeometry relative="1" as="geometry">
            <mxPoint x="438.5" y="779.3628571428571" as="sourcePoint" />
            <mxPoint x="418.5" y="585.4999999999998" as="targetPoint" />
          </mxGeometry>
        </mxCell>
        <mxCell id="Ek-aGh3pe6eO3Bai1jZO-416" value="" style="edgeStyle=none;rounded=1;jumpStyle=none;html=1;shadow=0;labelBackgroundColor=none;startArrow=none;startFill=0;jettySize=auto;orthogonalLoop=1;strokeColor=#12AAB5;strokeWidth=3;fontFamily=Helvetica;fontSize=14;fontColor=#FFFFFF;spacing=5;fontStyle=1;fillColor=#b0e3e6;" parent="1" source="Ek-aGh3pe6eO3Bai1jZO-280" target="Ek-aGh3pe6eO3Bai1jZO-414" edge="1">
          <mxGeometry relative="1" as="geometry">
            <mxPoint x="304.5" y="813.5" as="sourcePoint" />
            <mxPoint x="294.5" y="595.4999999999998" as="targetPoint" />
          </mxGeometry>
        </mxCell>
        <mxCell id="Ek-aGh3pe6eO3Bai1jZO-418" value="" style="edgeStyle=none;rounded=1;jumpStyle=none;html=1;shadow=0;labelBackgroundColor=none;startArrow=none;startFill=0;jettySize=auto;orthogonalLoop=1;strokeColor=#12AAB5;strokeWidth=3;fontFamily=Helvetica;fontSize=14;fontColor=#FFFFFF;spacing=5;fontStyle=1;fillColor=#b0e3e6;exitX=0;exitY=0.5;exitDx=0;exitDy=0;entryX=0.5;entryY=0;entryDx=0;entryDy=0;" parent="1" source="Ek-aGh3pe6eO3Bai1jZO-274" target="Ek-aGh3pe6eO3Bai1jZO-343" edge="1">
          <mxGeometry relative="1" as="geometry">
            <mxPoint x="362.49999999999955" y="245.5" as="sourcePoint" />
            <mxPoint x="416.5" y="218.5" as="targetPoint" />
          </mxGeometry>
        </mxCell>
        <mxCell id="Ek-aGh3pe6eO3Bai1jZO-421" value="Виходить" style="rounded=1;whiteSpace=wrap;html=1;shadow=0;fillColor=#fcf6d7;fontFamily=Helvetica;fontSize=14;fontColor=#000000;align=center;spacing=5;fontStyle=1;arcSize=7;perimeterSpacing=2;" parent="1" vertex="1">
          <mxGeometry x="714.5" y="180.5" width="84" height="60" as="geometry" />
        </mxCell>
        <mxCell id="Ek-aGh3pe6eO3Bai1jZO-427" value="Вивчення &#xa;нового " style="fontFamily=Helvetica;fontSize=14;fontStyle=1" parent="1" vertex="1">
          <mxGeometry x="1003.5" y="180.5" width="82" height="60" as="geometry" />
        </mxCell>
        <mxCell id="Ek-aGh3pe6eO3Bai1jZO-428" value="" style="edgeStyle=none;rounded=1;jumpStyle=none;html=1;shadow=0;labelBackgroundColor=none;startArrow=none;startFill=0;jettySize=auto;orthogonalLoop=1;strokeColor=#12AAB5;strokeWidth=3;fontFamily=Helvetica;fontSize=14;fontColor=#FFFFFF;spacing=5;fontStyle=1;fillColor=#b0e3e6;" parent="1" source="Ek-aGh3pe6eO3Bai1jZO-421" target="Ek-aGh3pe6eO3Bai1jZO-427" edge="1">
          <mxGeometry relative="1" as="geometry">
            <mxPoint x="957" y="231" as="sourcePoint" />
            <mxPoint x="560" y="84" as="targetPoint" />
          </mxGeometry>
        </mxCell>
        <mxCell id="Ek-aGh3pe6eO3Bai1jZO-430" value="" style="edgeStyle=none;rounded=1;jumpStyle=none;html=1;shadow=0;labelBackgroundColor=none;startArrow=none;startFill=0;jettySize=auto;orthogonalLoop=1;strokeColor=#12AAB5;strokeWidth=3;fontFamily=Helvetica;fontSize=14;fontColor=#FFFFFF;spacing=5;fontStyle=1;fillColor=#b0e3e6;entryX=0.5;entryY=1;entryDx=0;entryDy=0;exitX=0.5;exitY=0;exitDx=0;exitDy=0;" parent="1" source="Ek-aGh3pe6eO3Bai1jZO-261" target="Ek-aGh3pe6eO3Bai1jZO-421" edge="1">
          <mxGeometry relative="1" as="geometry">
            <mxPoint x="862.5" y="272.5" as="sourcePoint" />
            <mxPoint x="907" y="237" as="targetPoint" />
          </mxGeometry>
        </mxCell>
        <mxCell id="Ek-aGh3pe6eO3Bai1jZO-471" value="" style="edgeStyle=none;rounded=1;jumpStyle=none;html=1;shadow=0;labelBackgroundColor=none;startArrow=none;startFill=0;jettySize=auto;orthogonalLoop=1;strokeColor=#12AAB5;strokeWidth=3;fontFamily=Helvetica;fontSize=14;fontColor=#FFFFFF;spacing=5;fontStyle=1;fillColor=#b0e3e6;exitX=0.973;exitY=0.409;exitDx=0;exitDy=0;exitPerimeter=0;entryX=0.5;entryY=0;entryDx=0;entryDy=0;" parent="1" source="Ek-aGh3pe6eO3Bai1jZO-406" target="Ek-aGh3pe6eO3Bai1jZO-472" edge="1">
          <mxGeometry relative="1" as="geometry">
            <mxPoint x="413.5" y="632.4999999999998" as="sourcePoint" />
            <mxPoint x="513.5" y="912.5" as="targetPoint" />
          </mxGeometry>
        </mxCell>
        <mxCell id="Ek-aGh3pe6eO3Bai1jZO-472" value="Вивченням &#xa;термінів" style="fontFamily=Helvetica;fontSize=14;fontStyle=1" parent="1" vertex="1">
          <mxGeometry x="465.5" y="944.5" width="114" height="60" as="geometry" />
        </mxCell>
      </root>
    </mxGraphModel>
  </diagram>
</mxfile>
